<svg width="41" height="223" viewBox="0 0 41 223" fill="none" xmlns="http://www.w3.org/2000/svg">
<g clip-path="url(#clip0_5_237)">
<path d="M39.5947 10.4625C39.3245 10.35 38.9417 10.26 38.4688 10.1475C37.5006 9.9675 36.127 9.855 34.5283 10.035C32.9521 10.1925 31.1732 10.665 29.5069 11.43L28.9215 11.745L28.9665 11.5425C29.0566 11.205 29.1467 10.89 29.2142 10.5525C29.2818 10.2375 29.3718 9.9 29.4394 9.585L29.5294 9.1125L29.642 8.64C29.7771 8.0325 29.8897 7.425 30.0023 6.885C30.1149 6.345 30.205 5.8725 30.25 5.445C30.3626 4.6125 30.3851 4.05 30.25 3.9825C30.1149 3.8925 29.642 4.14 28.9215 4.635L28.3585 5.0625C28.1559 5.22 27.9307 5.3775 27.7281 5.58C27.3002 5.9625 26.8274 6.39 26.3545 6.8625L25.9942 7.2225L25.6339 7.605C25.3863 7.875 25.1611 8.145 24.9134 8.415C24.6882 8.685 24.4405 8.9775 24.2154 9.27C23.9902 9.5625 23.765 9.855 23.5624 10.17L23.3822 10.4175C22.6166 5.31 20.9278 0 20.455 0C19.9821 0 18.3609 5.2875 17.6178 10.4175L17.4376 10.17C17.235 9.8775 17.0098 9.5625 16.7846 9.27C16.5595 8.9775 16.3118 8.7075 16.0866 8.415C15.8389 8.145 15.6137 7.875 15.3661 7.605L15.0058 7.2225L14.6455 6.8625C14.1726 6.39 13.6998 5.9625 13.2719 5.58C13.0693 5.4 12.8441 5.22 12.6415 5.0625L12.0785 4.635C11.3805 4.14 10.8851 3.8925 10.75 3.9825C10.6149 4.0725 10.6374 4.6125 10.75 5.445C10.8176 5.8725 10.9076 6.345 10.9977 6.885C11.0878 7.425 11.2003 8.01 11.358 8.64L11.4706 9.1125L11.5606 9.585C11.6282 9.9 11.6957 10.2375 11.7858 10.5525C11.8533 10.89 11.9434 11.205 12.0335 11.5425L12.0785 11.745C11.8759 11.6325 11.6957 11.52 11.4931 11.43C9.82679 10.665 8.04792 10.1925 6.47171 10.035C4.87298 9.855 3.49942 9.9675 2.53118 10.1475C2.05831 10.2375 1.67552 10.35 1.40531 10.4625C1.1351 10.575 1 10.665 1 10.7325C1 10.8 1.11259 10.935 1.33776 11.0925C1.56293 11.25 1.87818 11.4525 2.28349 11.6775C3.07159 12.15 4.12991 12.78 5.18822 13.545C6.26905 14.31 7.3724 15.2325 8.36316 16.1775C8.85854 16.65 9.33141 17.1225 9.75924 17.5725C10.2096 18.0225 10.6149 18.4725 10.9977 18.9C11.4706 19.3725 11.8759 19.8 12.2587 20.205C13.7223 24.21 16.7171 27 20.5 27C24.2829 27 26.94 24.3 28.7413 20.205C29.1241 19.8 29.5294 19.3725 30.0023 18.9C30.4076 18.495 30.8129 18.045 31.2633 17.5725C31.7136 17.1 32.164 16.65 32.6594 16.1775C33.6501 15.2325 34.7535 14.3325 35.8118 13.545C36.8926 12.78 37.9509 12.15 38.7165 11.6775C39.0993 11.4525 39.4371 11.25 39.6622 11.0925C39.8874 10.935 40 10.8225 40 10.7325C40 10.665 39.8424 10.5525 39.5947 10.4625ZM15.6363 20.205C15.3661 19.755 15.0958 19.305 14.7806 18.855C13.6998 17.3025 12.3712 15.93 11.0427 14.8725C10.3897 14.3325 9.7142 13.8825 9.10624 13.5C8.79099 13.2975 8.49827 13.14 8.22806 12.9825C7.93534 12.825 7.68764 12.69 7.43995 12.5775C6.47171 12.0825 5.86374 11.835 5.88626 11.79C5.88626 11.745 6.53926 11.9025 7.55254 12.3075C7.80023 12.3975 8.07044 12.5325 8.38568 12.6675C8.67841 12.8025 8.99365 12.96 9.30889 13.14C9.96189 13.5 10.6599 13.9275 11.3805 14.4225C12.7991 15.435 14.2402 16.8075 15.4336 18.36C15.8839 18.945 16.2893 19.575 16.6721 20.205H15.6363ZM16.1091 14.76C15.8164 14.0175 15.5237 13.2975 15.2535 12.6225C14.9382 11.925 14.668 11.2725 14.3978 10.6875C14.2852 10.395 14.1276 10.125 14.015 9.855C13.9024 9.6075 13.7898 9.36 13.6773 9.135C13.4746 8.7075 13.317 8.3475 13.2044 8.1C13.0918 7.8525 13.0468 7.7175 13.0693 7.7175C13.0693 7.7175 13.1819 7.8075 13.3395 8.0325C13.4971 8.2575 13.6773 8.595 13.9249 9C14.0375 9.2025 14.1726 9.4275 14.3303 9.675C14.4654 9.9225 14.623 10.1925 14.7806 10.485C15.0733 11.0475 15.4111 11.7 15.7714 12.375C16.0866 13.0725 16.4469 13.815 16.7846 14.5575C16.9423 14.94 17.0999 15.3225 17.2575 15.705V16.245C16.9423 15.75 16.5595 15.255 16.1091 14.7375V14.76ZM20.0046 20.205C20.1172 13.4325 20.3199 5.2875 20.4775 5.2875C20.6351 5.2875 20.8152 13.4325 20.9278 20.205H20.0046ZM23.765 15.7275C23.9226 15.345 24.0803 14.9625 24.2379 14.58C24.5982 13.8375 24.9359 13.095 25.2512 12.3975C25.6114 11.7225 25.9267 11.0925 26.2419 10.5075C26.377 10.215 26.5346 9.945 26.6923 9.6975C26.8274 9.45 26.9625 9.225 27.0976 9.0225C27.3453 8.6175 27.5479 8.28 27.683 8.055C27.8406 7.83 27.9307 7.7175 27.9532 7.74C27.9532 7.74 27.9307 7.8975 27.8181 8.1225C27.7055 8.37 27.5479 8.73 27.3453 9.1575C27.2552 9.3825 27.1201 9.6075 27.0075 9.8775C26.8949 10.125 26.7373 10.395 26.6247 10.71C26.377 11.295 26.0843 11.9475 25.7691 12.645C25.4988 13.32 25.2061 14.04 24.9134 14.7825C24.463 15.3 24.0577 15.795 23.7425 16.29V15.75L23.765 15.7275ZM33.5826 12.555C33.3349 12.6675 33.0872 12.825 32.7945 12.96C32.5243 13.1175 32.2315 13.2975 31.9163 13.4775C31.3083 13.86 30.6328 14.31 29.9798 14.85C28.6513 15.9075 27.3227 17.3025 26.2419 18.8325C25.9267 19.2825 25.6565 19.7325 25.3863 20.1825H24.3505C24.7333 19.5525 25.1386 18.945 25.5889 18.3375C26.7823 16.785 28.2234 15.4125 29.642 14.4C30.3626 13.8825 31.0606 13.455 31.7136 13.1175C32.0289 12.9375 32.3441 12.8025 32.6368 12.645C32.9296 12.51 33.1998 12.3975 33.47 12.285C34.4833 11.88 35.1363 11.7225 35.1363 11.7675C35.1363 11.8125 34.5508 12.06 33.5826 12.555Z" fill="#EDBFAE"/>
<path d="M20.1392 20.4501V263H20.8609V20.4501" fill="#EDBFAE"/>
<path d="M20.1392 20.4501V263H20.8609V20.4501" stroke="#EDBFAE"/>
</g>
<defs>
<clipPath id="clip0_5_237">
<rect width="41" height="223" fill="white"/>
</clipPath>
</defs>
</svg>
