<svg xmlns="http://www.w3.org/2000/svg" viewBox="0 0 96.57 100"><defs><style>.cls-1{fill:#537b63;}</style></defs><g id="Layer_2" data-name="Layer 2"><g id="Layer_1-2" data-name="Layer 1"><path class="cls-1" d="M51.72,34.46q-18.39,0-36.77,0c-1,0-1.09-.27-.95-1.12C15.33,25,20.18,19.15,27.28,15A33.47,33.47,0,0,1,44,10.39c5.25-.08,10.51-.18,15.76,0,9.7.37,18.08,3.81,24.49,11.35a23,23,0,0,1,5.22,11.62c.13.86,0,1.11-1,1.11Q70.11,34.43,51.72,34.46Zm-8-20.66a32.91,32.91,0,0,0-12.27,2.84A24.46,24.46,0,0,0,19.24,27.86a1.73,1.73,0,0,0,.62,2.45,1.71,1.71,0,0,0,2.43-.87,19.4,19.4,0,0,1,1.83-2.9c4.1-5.1,9.6-7.72,15.91-8.87a32.34,32.34,0,0,1,4.81-.44,1.66,1.66,0,0,0,1.69-1.76,1.69,1.69,0,0,0-1.77-1.67C44.39,13.79,44,13.8,43.73,13.8Z"/><path class="cls-1" d="M71.81,44.81c-.86,1.45-1.68,2.74-2.41,4.08a31.38,31.38,0,0,0-3.32,9.57,6,6,0,0,1-2.45,4,96.2,96.2,0,0,0-15.5,14.41,6.83,6.83,0,0,1-2,1.54,51.52,51.52,0,0,0-13,9.83c-.45.47-.68.46-1.13,0q-4.39-4.45-8.86-8.86a1.26,1.26,0,0,1-.4-1.31,36.37,36.37,0,0,1,4.59-11.55,27.1,27.1,0,0,0,3.69-14.35c0-2,0-3.91,0-5.86,0-1.21.51-1.61,1.72-1.41a3.32,3.32,0,0,1,2.79,2.69,33.26,33.26,0,0,1,0,12.54C34.87,64.9,38.15,69,42.78,69a7.19,7.19,0,0,0,4.8-1.82q5.51-4.81,11-9.66a8.37,8.37,0,0,0,2.22-3.2,32,32,0,0,1,3.11-6c.38-.55.81-1.07,1.24-1.59a4.45,4.45,0,0,1,4.27-1.92A17,17,0,0,0,71.81,44.81Z"/><path class="cls-1" d="M14,100H2.3C.56,100,0,99.43,0,97.7s0-3.5,0-5.25a1.81,1.81,0,0,1,1-1.81C6,88.38,10,84.9,14,81.33c.65-.58,1.27-1.2,1.93-1.78a1.74,1.74,0,0,1,2.6,0q6.84,6.8,13.64,13.64A1.69,1.69,0,0,1,32,96c-1.48,1.22-3,2.39-4.49,3.6a2.5,2.5,0,0,1-1.71.44Z"/><path class="cls-1" d="M51.75,41.36H9.42c-1.72,0-2.56-.59-2.54-1.75s.88-1.7,2.5-1.7H94.45c1.33,0,2.14.7,2.12,1.77s-.78,1.67-2.08,1.68H51.75Z"/><path class="cls-1" d="M52.68,58.08c.66-2.91.73-5.93,2.16-8.6.48-.89,1.09-1.69,1.62-2.54,1.34-2.17,3.28-2.48,5.63-2-.31.46-.61.89-.91,1.32a27.89,27.89,0,0,0-3.26,6,7.77,7.77,0,0,1-2.36,3.32C54.57,56.38,53.63,57.24,52.68,58.08Z"/><path class="cls-1" d="M55.17,3.43A3.45,3.45,0,1,1,51.7,0,3.41,3.41,0,0,1,55.17,3.43Z"/></g></g></svg>