<?xml version="1.0" encoding="utf-8"?>
<!-- Generator: Adobe Illustrator 27.3.1, SVG Export Plug-In . SVG Version: 6.00 Build 0)  -->
<svg version="1.1" id="Layer_1" xmlns="http://www.w3.org/2000/svg" xmlns:xlink="http://www.w3.org/1999/xlink" x="0px" y="0px"
	 viewBox="0 0 100 89.1" style="enable-background:new 0 0 100 89.1;" xml:space="preserve">
<style type="text/css">
	.st0{fill:#527A62;}
</style>
<g>
	<path class="st0" d="M92.8,63.4c-0.1,0.6-0.2,1.2-0.3,1.8c-0.2,3.3-1.2,6.3-2.9,9.1c-1.3,2.2-3,4.3-5,5.9c-3.1,2.4-6.7,4-10.6,4.7
		c-4.2,0.7-8.3,0.1-12.2-1.6c-6.3-2.7-10.3-7.5-12.3-14c-0.6-2-1-4-1-6.1c0-4.3,1.2-8.2,3.4-11.9c1.5-2.4,3.4-4.5,5.7-6.2
		c2.7-1.9,5.7-3.2,9-3.8c2.5-0.5,5-0.5,7.5,0c6.3,1.1,11.3,4.3,14.9,9.7c2.1,3.2,3.3,6.7,3.5,10.5c0,0.2,0.1,0.5,0.2,0.7
		C92.8,62.5,92.8,63,92.8,63.4z M79.3,56.9c0-1.1-0.6-2-1.6-2.4s-2-0.2-2.8,0.6c-1.4,1.3-2.7,2.7-4,4c-0.3,0.3-0.4,0.2-0.6,0
		c-1.2-1.2-2.3-2.4-3.6-3.6c-0.4-0.4-0.9-0.7-1.3-1c-1.7-0.7-3.6,0.7-3.5,2.5c0.1,0.9,0.6,1.5,1.2,2.1c1.2,1.2,2.3,2.3,3.5,3.5
		c0.3,0.3,0.4,0.5,0,0.9c-1.1,1.1-2.2,2.2-3.2,3.3c-0.3,0.4-0.7,0.7-1,1.1c-0.5,0.7-0.6,1.4-0.3,2.2c0.7,1.9,2.9,2.4,4.4,1
		c1.3-1.3,2.6-2.6,3.8-3.9c0.3-0.4,0.5-0.3,0.8,0c1,1,2,2.1,3,3.1c0.5,0.5,1,0.9,1.5,1.3c1.5,0.9,3.6-0.2,3.7-2
		c0.1-0.9-0.3-1.6-0.9-2.2c-1.3-1.3-2.6-2.6-3.9-4c-0.2-0.2-0.3-0.4,0-0.6c0.1-0.1,0.2-0.2,0.3-0.3c1.2-1.2,2.4-2.5,3.6-3.7
		C79,58.3,79.4,57.7,79.3,56.9z"/>
	<path class="st0" d="M56.6,35.5c-0.8,0.5-1.7,1-2.5,1.5c-0.9,0.6-1.7,1.3-2.6,1.9c-0.2,0.1-0.4,0.2-0.5,0.2c-0.7,0-1.4,0-2.1,0
		c-12.1,0-24.2,0-36.3,0c-0.5,0-1,0-1.6,0c0,0.2,0,0.3,0,0.5c0,9.7,0,19.3,0,29c0,1.3,0.7,2,2,2.1c1.1,0,2.2,0,3.3,0
		c7.9,0,15.7,0,23.6,0c0.5,0,1.1-0.1,1.5,0.1c0.3,0.2,0.3,0.9,0.5,1.3c0.3,0.7,0.5,1.5,0.8,2.3c-0.2,0-0.3,0-0.5,0
		c-9.7,0-19.3,0-29,0c-2.3,0-4.1-1.1-5.2-3.2c-0.5-0.9-0.6-2-0.6-3c0-18.5,0-37.1,0-55.6c0-3.1,1.7-5.1,4.7-5.8
		c0.1,0,0.3-0.1,0.4-0.1c2.4,0,4.7,0,7.1,0c1.1,0,2,1.2,1.9,1.9c0,1-1,1.9-2,1.9c-2.2,0-4.3,0-6.5,0c-1,0-1.6,0.6-1.8,1.5
		c0,0.3-0.1,0.6-0.1,0.8c0,7.3,0,14.6,0,21.9c0,0.2,0,0.4,0,0.7C26.2,35.4,41.4,35.4,56.6,35.5C56.6,35.4,56.6,35.5,56.6,35.5z"/>
	<path class="st0" d="M41.4,26.1c0.8,1.5,1.7,2.9,2.5,4.4c-1.1,0.2-2.2,0.4-3.2,0.6c-0.3,0.1-0.7,0.2-1,0.2c-0.3,0.1-0.4,0-0.5-0.3
		c-0.4-1.2-0.9-2.5-1.3-3.7c-0.1-0.3-0.3-0.5-0.7-0.4c-0.9,0.1-0.9,0.1-0.9,1c0,1.1,0,2.3,0,3.4c-1.5,0-3,0-4.4,0c0-0.1,0-0.2,0-0.3
		c0.1-4.4,0.2-8.9,0.3-13.3c0-0.4,0.2-0.6,0.5-0.7c2.5-0.8,5.1-1,7.6-0.2c2,0.6,3.4,2,3.6,4.2c0.2,2.2-0.5,4-2.4,5
		C41.5,26,41.5,26,41.4,26.1z M36.6,19.8c0,0.7-0.1,1.4-0.1,2c0,0.5-0.1,1.1-0.1,1.6c0,0.3,0.1,0.4,0.4,0.3c0.4-0.1,0.9-0.2,1.3-0.3
		c0.7-0.3,1.2-0.8,1.2-1.6c0-0.8-0.2-1.5-1-1.9C37.9,19.6,37.3,19.8,36.6,19.8z"/>
	<path class="st0" d="M80.1,34.2c-1.1-0.3-2.2-0.6-3.3-0.8c-0.3-0.1-0.4-0.2-0.4-0.5c0-6.6,0-13.2,0-19.7c0-0.4,0-0.7-0.1-1.1
		c-0.1-1-0.8-1.5-1.8-1.5c-1.9,0-3.8,0-5.7,0c-0.9,0-1.8-0.3-2.2-1.3c-0.5-1,0.3-2.4,1.5-2.5c1.5-0.1,3,0,4.5,0c1,0,2-0.1,2.9,0.1
		c2.8,0.5,4.7,2.8,4.7,5.6c0,7.1,0,14.3,0,21.4C80.1,34,80.1,34.1,80.1,34.2z"/>
	<path class="st0" d="M65.5,22c-0.1,1.1-0.1,2-0.2,3.1c-0.9,0-1.8,0.1-2.7,0.1c-0.4,0-0.5,0.1-0.5,0.5c0,0.2,0,0.5-0.1,0.7
		c-0.1,0.3,0.1,0.4,0.4,0.4c1.3,0,2.6,0,4,0c0,0.4,0,0.8,0,1.3c-0.1,1-0.1,1.9-0.2,2.9c0,0.1-0.2,0.3-0.3,0.3c-2.8,0-5.6,0-8.5,0
		c0.1-4.9,0.2-9.9,0.3-14.8c3.2,0,6.3,0,9.6,0c-0.1,1.2-0.2,2.4-0.3,3.6c0,0.1-0.2,0.2-0.3,0.2c-1.3,0.1-2.6,0.1-3.9,0.2
		c-0.1,0-0.2,0.2-0.3,0.3l0,0c-0.2,1.1-0.2,1.1,0.9,1.1C64,22,64.7,22,65.5,22z"/>
	<path class="st0" d="M46.3,16.5c0.2,0,0.3,0,0.4,0c2.8,0,5.6,0,8.5,0c0.5,0,0.5,0.1,0.5,0.6c-0.1,1-0.1,1.9-0.1,2.9
		c0,0.3-0.1,0.4-0.4,0.4c-1.3,0.1-2.5,0.2-3.8,0.2c-0.3,0-0.4,0.1-0.4,0.4s-0.1,0.6-0.1,1c1.1,0,2.1,0,3.1,0c-0.1,1-0.1,1.9-0.2,2.8
		c0,0.3-0.1,0.4-0.4,0.4c-0.9,0-1.8,0-2.7,0c-0.1,0.5-0.1,1-0.2,1.4c0,0.3,0.1,0.3,0.3,0.3c1.2,0,2.5,0,3.7,0c0.2,0,0.4,0,0.4,0.3
		c-0.1,1.4-0.1,2.8-0.2,4.2c-2.9,0.1-5.9,0.1-8.9,0.2C46,26.5,46.1,21.5,46.3,16.5z"/>
	<path class="st0" d="M20.1,31.3c0.1-4.9,0.2-9.9,0.3-14.8c3.2,0,6.3,0,9.4,0c0,0.7,0,1.4,0,2.1c0,0.3,0,0.6,0,0.9
		c0,0.7,0,0.7-0.7,0.8c-1.1,0.1-2.3,0.2-3.4,0.2c-0.3,0-0.4,0.1-0.4,0.4c0,0.4,0,0.8,0,1.3c0,0.3,0.1,0.4,0.4,0.4c1.1,0,2.2,0,3.4,0
		c0,0.7-0.1,1.4-0.1,2.1c-0.1,1.1-0.1,1.1-1.2,1.1c-0.7,0-1.4,0.1-2.1,0.1c-0.4,0-0.4,0.1-0.4,0.5c0,1.7,0,3.3,0,5.1
		C23.7,31.3,21.9,31.3,20.1,31.3z"/>
	<path class="st0" d="M43.4,10.5c-2,0-4,0-6,0c-1,0-1.8-0.5-2-1.4c-0.3-1.2,0.5-2.3,1.7-2.3c2.1,0,4.1,0,6.2,0c2,0,4.1,0,6.1,0
		c0.4,0,0.7,0,1.1,0.1c0.8,0.3,1.2,0.9,1.2,1.7s-0.4,1.4-1.2,1.7c-0.3,0.1-0.7,0.2-1,0.2C47.4,10.5,45.4,10.5,43.4,10.5z"/>
	<path class="st0" d="M31.6,8.6c0,0.5,0,0.9,0,1.4c0,1.4-0.6,2.2-1.8,2.7c-1.4,0.6-2.7,0.4-3.9-0.5c-0.7-0.5-1-1.3-1-2.1
		c0-1.1,0-2.2,0-3.3c0-1.5,1.1-2.6,2.6-2.7C28.3,4,29.2,3.9,30,4.4c0.9,0.5,1.4,1.1,1.5,2.1C31.6,7.2,31.5,7.9,31.6,8.6
		C31.5,8.6,31.6,8.6,31.6,8.6z"/>
	<path class="st0" d="M62.3,8.5c0,0.4,0,0.9,0,1.3c0,0.9-0.3,1.6-1,2.1c-1.5,1.1-3.3,1.1-4.8,0c-0.7-0.5-1.1-1.3-1.1-2.2
		c0-0.8,0-1.5,0-2.3c0-1.3,0.7-2.3,1.9-2.8s2.4-0.4,3.5,0.2c0.9,0.5,1.5,1.3,1.4,2.5C62.3,7.7,62.3,8.1,62.3,8.5L62.3,8.5z"/>
	<path class="st0" d="M36.2,46.5c1.4,0,2.8,0,4.2,0c0.7,0,0.7,0,0.7,0.7c0,0.8,0,1.5,0,2.3c0,0.7-0.1,0.7-0.8,0.7c-2.3,0-4.7,0-7,0
		c-0.5,0-1,0-1.5,0c-0.1,0-0.3-0.1-0.4-0.2c-0.3-1.1-0.3-2.2,0-3.3c0.1-0.3,0.3-0.3,0.6-0.3C33.3,46.5,34.8,46.5,36.2,46.5
		L36.2,46.5z"/>
	<path class="st0" d="M21.2,50.2c-1.4,0-2.9,0-4.3,0c-0.3,0-0.5-0.1-0.5-0.4c0-1-0.1-1.9-0.1-2.9c0-0.3,0.2-0.5,0.6-0.5
		c2.8,0,5.5,0,8.3,0c0.2,0,0.4,0,0.5,0.1s0.3,0.3,0.3,0.4c0,0.9,0,1.8,0,2.7c0,0.5-0.4,0.5-0.7,0.5C24,50.2,22.6,50.2,21.2,50.2
		L21.2,50.2z"/>
	<path class="st0" d="M21.2,62.4c-1.4,0-2.8,0-4.3,0c-0.3,0-0.5-0.1-0.5-0.4c-0.2-1-0.2-1.9,0-2.9c0.1-0.3,0.2-0.4,0.5-0.4
		c2.8,0,5.6,0,8.4,0c0.1,0,0.1,0,0.2,0c0.7,0.1,0.7,0.1,0.7,0.8c0,0.8,0,1.5,0,2.3c0,0.5-0.2,0.6-0.6,0.6
		C24.1,62.4,22.7,62.4,21.2,62.4L21.2,62.4z"/>
	<path class="st0" d="M40.3,62.4c-0.8,0-1.6,0-2.4,0c-2.1,0-4.1,0-6.2,0c-0.3,0-0.4-0.1-0.4-0.4c0-1,0-2,0-3c0-0.3,0.3-0.4,0.6-0.4
		c2.6,0,5.2,0,7.9,0c0.9,0,0.8,0,0.8,0.9C40.4,60.5,40.4,61.4,40.3,62.4z"/>
</g>
</svg>
