<?xml version="1.0" encoding="utf-8"?>
<!-- Generator: Adobe Illustrator 27.3.1, SVG Export Plug-In . SVG Version: 6.00 Build 0)  -->
<svg version="1.1" id="Layer_1" xmlns="http://www.w3.org/2000/svg" xmlns:xlink="http://www.w3.org/1999/xlink" x="0px" y="0px"
	 viewBox="0 0 100 89.1" style="enable-background:new 0 0 100 89.1;" xml:space="preserve">
<style type="text/css">
	.st0{fill:#FFFFFF;}
	.st1{fill:#527A62;}
</style>
<g>
	<path class="st0" d="M84.7,85.8C84.7,85.7,84.8,85.7,84.7,85.8c0-0.2-0.1-0.3-0.2-0.5c-1.1-1.8-2.3-3.5-3.3-5.4
		c-1.3-2.3-2.1-4.9-2.1-7.6c0-1.8,0.4-3.6,0.9-5.4c0.8-2.7,1.6-5.5,2.3-8.2c0.8-3.1,0.8-6.3-0.3-9.4c-0.1-0.4-0.3-0.8-0.3-1.2
		c-0.1-1.6-0.1-3.2-0.3-4.8c-0.5-4.1-1.7-8-4-11.4c-6.8-10.4-16.5-15-28.9-13.7c-7.8,0.8-14.2,4.5-19.1,10.5
		C24,35.4,22,43.1,23.1,51.5c0.6,5,2.5,9.6,5.7,13.6c5.6,7.3,13.1,11.2,22.3,11.6c4.1,0.2,8.1-0.4,11.9-1.9c0.2-0.1,0.4-0.1,0.6,0.1
		c1.7,2.1,3.9,3.7,6.4,4.8c3.4,1.5,6.9,2.9,10.3,4.3C81.7,84.7,83.2,85.2,84.7,85.8z"/>
	<path class="st1" d="M67.6,19.4c0,0,0.1,0,0.1,0.1c3.5-3.2,7-6.4,10.5-9.6c-1.7-2.2-3.4-4.3-5.1-6.4C71.2,8.8,69.4,14.1,67.6,19.4z
		"/>
	<path class="st1" d="M23.4,62.8C23.4,62.7,23.4,62.7,23.4,62.8c-2.8,1.6-5.5,3.3-8.2,5c0.9,1.6,1.7,3.2,2.7,4.9
		C19.8,69.4,21.6,66.1,23.4,62.8z"/>
	<path class="st1" d="M70.8,21v0.1c2.9,0.1,5.7,0.2,8.7,0.2c-0.2-1.5-0.4-3-0.7-4.5C76.1,18.3,73.5,19.7,70.8,21z"/>
	<path class="st1" d="M15.7,59.9c0,1.1,0,2,0,3.1c1.9-0.6,3.8-1.2,5.7-1.8v-0.1C19.6,60.7,17.7,60.3,15.7,59.9z"/>
	<path class="st1" d="M66.8,9.6c-0.6,0.5-1.1,0.9-1.5,1.3c-0.8,0.7-0.8,0.7-0.5,1.7c0.4,1.1,0.8,2.1,1.1,3.2H66
		C66.3,13.7,66.5,11.7,66.8,9.6z"/>
	<path class="st1" d="M22.9,69.4c0.6-0.4,1.1-0.6,1.6-0.9c0.1-0.1,0.2-0.2,0.2-0.3c-0.1-0.9-0.3-1.8-0.4-2.7h-0.1
		C23.7,66.7,23.3,67.9,22.9,69.4z"/>
	<path class="st1" d="M84.7,85.8c-1.5-0.5-3-1-4.4-1.6c-3.5-1.4-6.9-2.8-10.3-4.3c-2.5-1.1-4.7-2.7-6.4-4.8
		c-0.2-0.2-0.4-0.2-0.6-0.1c-3.8,1.5-7.8,2.1-11.9,1.9c-9.2-0.5-16.7-4.3-22.3-11.6c-3.1-4-5-8.6-5.7-13.6
		C22,43.1,24,35.4,29.4,28.8c4.9-6.1,11.3-9.7,19.1-10.5c12.4-1.3,22,3.3,28.9,13.7c2.3,3.4,3.5,7.3,4,11.4c0.2,1.6,0.2,3.2,0.3,4.8
		c0,0.4,0.2,0.8,0.3,1.2c1.1,3.1,1.1,6.2,0.3,9.4c-0.7,2.8-1.6,5.5-2.3,8.2c-0.5,1.8-0.9,3.6-0.9,5.4c0,2.7,0.8,5.3,2.1,7.6
		c1,1.8,2.2,3.6,3.3,5.4C84.6,85.4,84.7,85.5,84.7,85.8C84.8,85.7,84.7,85.7,84.7,85.8z"/>
	<path d="M62.6,44.3c0.8,4,1.6,7.9,2.4,11.8c0.9-0.2,1.8-0.4,2.6-0.5c-0.2-1.2-0.5-2.4-0.7-3.5c0.6-0.3,0.9-0.2,1.2,0.3
		c0.5,0.9,1,1.8,1.5,2.8c0.9-0.2,1.8-0.4,2.8-0.6c-0.8-1.2-1.5-2.3-2.2-3.5c-0.1-0.2-0.1-0.5,0-0.6c0.6-0.7,0.6-1.5,0.5-2.3
		s-0.3-1.7-0.5-2.5c-0.4-1.6-1.6-2.5-3.2-2.3C65.5,43.7,64.1,44,62.6,44.3z"/>
	<path d="M37.9,49.4c-0.1,0-0.2,0-0.3,0c-2.2,0.2-4.4,1.5-3.6,4.6c0.4,1.6,0.7,3.3,1,5c0.3,1.5,1.4,2.5,2.9,2.6c0.7,0,1.4,0,2-0.2
		c1.8-0.5,2.7-2,2.4-3.8c-0.4-1.9-0.8-3.8-1.2-5.7C40.8,50.2,39.6,49.3,37.9,49.4z"/>
	<path d="M58.1,57.5c1.9-0.4,3.8-0.8,5.7-1.2c-0.2-0.9-0.4-1.8-0.5-2.6c-1,0.2-2,0.4-3.1,0.6c-0.1-0.7-0.3-1.3-0.4-1.9
		c0.9-0.2,1.7-0.4,2.6-0.5c-0.2-0.9-0.4-1.8-0.6-2.6c-0.9,0.2-1.7,0.3-2.6,0.5c-0.1-0.7-0.3-1.3-0.4-1.9c1-0.2,1.8-0.4,2.8-0.6
		c-0.2-0.9-0.4-1.7-0.5-2.6c-1.8,0.4-3.6,0.7-5.4,1.1C56.5,49.7,57.3,53.6,58.1,57.5z"/>
	<path d="M48.9,47.2c0.8,4,1.6,7.8,2.4,11.8c0.9-0.2,1.8-0.4,2.6-0.5c-0.3-1.5-0.6-3-0.9-4.6c0.9-0.2,1.7-0.4,2.6-0.5
		c-0.2-0.9-0.4-1.7-0.5-2.6c-0.9,0.2-1.7,0.3-2.6,0.5c-0.1-0.7-0.3-1.3-0.4-2c1-0.2,1.9-0.4,2.9-0.6c-0.2-0.9-0.4-1.8-0.5-2.6
		C52.5,46.4,50.7,46.8,48.9,47.2z"/>
	<path d="M45.2,50.7c1-0.2,1.9-0.4,2.9-0.6c-0.2-0.9-0.4-1.8-0.5-2.6c-1.7,0.4-3.4,0.7-5.1,1c-0.4,0.1-0.4,0.2-0.4,0.6
		c0.5,2.2,0.9,4.3,1.3,6.5c0.3,1.6,0.7,3.2,1,4.8c0.9-0.2,1.8-0.4,2.6-0.5c-0.3-1.5-0.6-3-0.9-4.6c0.9-0.2,1.7-0.4,2.6-0.5
		c-0.2-0.9-0.4-1.7-0.5-2.6c-0.9,0.2-1.7,0.3-2.6,0.5C45.5,51.9,45.4,51.4,45.2,50.7z"/>
	<path d="M51,37c0,0.2,0,0.3,0,0.4c0.3,1.4,0.6,2.8,0.9,4.2c0.1,0.4,0,0.6-0.4,0.7c-0.4,0.1-0.6-0.1-0.7-0.5c-0.1-0.5-0.2-1-0.3-1.5
		c-0.2-1-0.4-2-0.6-3.1c-0.5,0.1-1,0.2-1.6,0.3c0.4,1.7,0.7,3.4,1.1,5.1c0.2,0.6,0.7,1,1.3,1.2c1.5,0.4,3-0.7,2.8-2
		c-0.3-1.7-0.7-3.4-1-5.1C52,36.8,51.5,36.9,51,37z"/>
	<path d="M35.2,40.2c0.6,0.8,1.1,1.5,1.7,2.2c0.5,0.6,0.6,1.1,0.4,1.9c-0.3,0.8-0.4,1.7-0.6,2.6c0.5-0.1,0.9-0.1,1.3-0.3
		c0.2-0.1,0.4-0.3,0.4-0.4c0.1-0.5,0.2-1,0.3-1.5c0.3,0.5,0.6,0.9,0.9,1.3c0.1,0.1,0.2,0.2,0.3,0.2c0.5-0.1,1-0.2,1.5-0.3
		c-0.6-0.8-1.1-1.6-1.7-2.2c-0.5-0.5-0.5-1-0.3-1.7c0.3-0.8,0.4-1.7,0.7-2.7c-0.5,0.1-0.8,0.2-1.2,0.2s-0.5,0.2-0.6,0.6
		c-0.1,0.4-0.2,0.9-0.3,1.4c-0.3-0.5-0.6-0.9-0.9-1.3c-0.1-0.1-0.3-0.3-0.4-0.2C36.2,40,35.8,40.1,35.2,40.2z"/>
	<path d="M59.5,35.3c1,2.1,2,4.2,3.1,6.3c0.4-0.1,0.7-0.2,1.1-0.2c0.4,0,0.5-0.2,0.5-0.6c0.1-1.9,0.2-3.9,0.2-5.8c0-0.2,0-0.4,0-0.6
		c-0.3,0.1-0.5,0.1-0.7,0.1c-0.6,0-0.9,0.3-0.8,1c0.1,1.1,0,2.3,0,3.5c-0.6-1.2-1.1-2.4-1.6-3.5C61.1,35,61,34.9,60.7,35
		C60.3,35.1,60,35.2,59.5,35.3z"/>
	<path d="M67.4,39c-0.1-0.4-0.1-0.7-0.2-1c0.5-0.1,0.9-0.2,1.4-0.3c-0.1-0.5-0.2-1-0.3-1.5c-0.5,0.1-0.9,0.2-1.4,0.3
		c-0.1-0.4-0.1-0.7-0.2-1c0.5-0.1,1-0.2,1.5-0.4c-0.1-0.4-0.1-0.8-0.2-1.2c0-0.1-0.2-0.2-0.3-0.2c-0.9,0.2-1.8,0.4-2.8,0.6
		c0.5,2.2,0.9,4.4,1.4,6.6c1.1-0.2,2.1-0.4,3.2-0.7c-0.1-0.5-0.2-1-0.3-1.5C68.6,38.7,68.1,38.8,67.4,39z"/>
	<path d="M36,45.4c-0.6,0.1-1.2,0.2-1.7,0.3c0-0.2-0.1-0.3-0.1-0.4c-0.2-0.5,0-0.8,0.5-0.8c0.3,0,0.5-0.1,0.8-0.2
		c-0.1-0.5-0.2-1-0.3-1.5c-0.5,0.1-1,0.2-1.4,0.3c-0.1-0.4-0.1-0.7-0.2-1c0.5-0.1,1-0.2,1.6-0.4c-0.1-0.5-0.2-1-0.3-1.5
		c-1.1,0.2-2,0.4-3.1,0.6c0.5,2.2,0.9,4.4,1.4,6.6c1.1-0.2,2.1-0.4,3.2-0.7C36.2,46.4,36.1,46,36,45.4z"/>
	<path d="M54.5,41.3c-0.3,1.6-0.1,1.9,1.4,1.7H56c1.1-0.2,1.8-0.9,1.8-1.9c0-1.1-0.5-1.8-1.6-2.1c-0.3-0.1-0.6-0.1-0.8-0.2
		c-0.2-0.1-0.4-0.3-0.4-0.5s0.3-0.4,0.4-0.5c0.1-0.1,0.3-0.1,0.5-0.1c0.4,0,0.5-0.1,0.6-0.5c0.1-1,0.1-1.1-0.9-1
		c-0.2,0-0.5,0.1-0.7,0.1c-0.9,0.3-1.4,0.9-1.5,1.8c0,1,0.4,1.7,1.3,2c0.3,0.1,0.7,0.2,1,0.3c0.2,0.1,0.3,0.3,0.5,0.5
		c-0.2,0.2-0.4,0.4-0.6,0.4C55.4,41.4,55,41.3,54.5,41.3z"/>
	<path d="M44.8,43.6c-0.5,0.1-0.9,0.2-1.3,0.3c-0.4,0.1-0.6,0-0.6-0.4c-0.2-0.8-0.3-1.6-0.5-2.4c-0.1-0.5,0-0.7,0.5-0.8
		c1.2-0.2,1.2-0.2,0.8-1.4c0,0,0,0,0-0.1c-0.1-0.1-0.2-0.3-0.3-0.2c-0.5,0.1-1,0.2-1.5,0.3c-0.8,0.3-1.2,1.1-1.1,1.8
		c0.2,1.1,0.4,2.3,0.7,3.4c0.2,0.8,0.9,1.3,1.7,1.3c0.6,0,1.2-0.2,1.9-0.3C45,44.6,44.9,44.1,44.8,43.6z"/>
	<path d="M49,44.3c-0.1-0.4-0.2-0.8-0.2-1.1s-0.2-0.4-0.5-0.3C47.9,43,47.5,43,47,43.1c-0.3-1.3-0.5-2.6-0.8-3.8
		c-0.3-1.4-0.3-1.4-1.6-1c0,0,0,0-0.1,0.1c0.4,2.1,0.9,4.3,1.3,6.5C46.9,44.8,47.9,44.5,49,44.3z"/>
	<path d="M57.5,35.6c0.4,2.2,0.9,4.2,1.3,6.3c0,0.1,0.2,0.3,0.2,0.3c0.4-0.1,0.9-0.2,1.3-0.3c-0.5-2.3-0.9-4.4-1.4-6.6
		C58.5,35.5,58,35.5,57.5,35.6z"/>
	<path d="M70.4,37.4c1.3-0.3,2.4-0.6,3.7-0.9c-0.1-0.6-0.3-1.1-0.4-1.6c-1.2,0.3-2.4,0.6-3.7,0.9C70.2,36.4,70.3,36.8,70.4,37.4z"/>
	<path d="M27,44.5c0.1,0.5,0.2,0.9,0.3,1.2c0.1,0.3,0.2,0.3,0.5,0.3c1-0.2,1.9-0.4,2.9-0.7c0.1,0,0.3-0.2,0.3-0.3
		c-0.1-0.4-0.2-0.8-0.3-1.2c0-0.1-0.2-0.2-0.3-0.2C29.3,44,28.2,44.3,27,44.5z"/>
	<path class="st1" d="M67.6,19.4c1.8-5.3,3.6-10.6,5.5-16c1.7,2.2,3.4,4.3,5.1,6.4C74.7,13,71.2,16.2,67.6,19.4L67.6,19.4z"/>
	<path class="st1" d="M23.4,62.8c-1.8,3.3-3.7,6.6-5.5,10c-0.9-1.7-1.8-3.3-2.7-4.9C17.9,66.1,20.6,64.4,23.4,62.8
		C23.4,62.7,23.4,62.7,23.4,62.8z"/>
	<path class="st1" d="M70.8,21c2.6-1.4,5.3-2.7,8-4.2c0.2,1.5,0.4,3,0.7,4.5C76.5,21.2,73.7,21.1,70.8,21
		C70.8,21.1,70.8,21.1,70.8,21z"/>
	<path class="st1" d="M15.7,59.9c2,0.4,3.8,0.8,5.7,1.2v0.1c-1.9,0.6-3.8,1.2-5.7,1.8C15.7,61.9,15.7,61,15.7,59.9z"/>
	<path class="st1" d="M66.8,9.6c-0.3,2.2-0.5,4.2-0.7,6.1H66c-0.4-1.1-0.8-2.1-1.1-3.2c-0.4-1-0.4-1,0.5-1.7
		C65.7,10.5,66.2,10.1,66.8,9.6z"/>
	<path class="st1" d="M22.9,69.4c0.4-1.4,0.8-2.7,1.2-3.9h0.1c0.1,0.9,0.3,1.8,0.4,2.7c0,0.1-0.1,0.3-0.2,0.3
		C24,68.7,23.5,69,22.9,69.4z"/>
	<path class="st0" d="M62.6,44.3c1.5-0.3,2.9-0.6,4.3-0.8c1.7-0.2,2.8,0.6,3.2,2.3c0.2,0.8,0.4,1.7,0.5,2.5s0.1,1.6-0.5,2.3
		c-0.1,0.1-0.1,0.4,0,0.6c0.7,1.1,1.4,2.2,2.2,3.5c-1,0.2-1.9,0.4-2.8,0.6c-0.5-0.9-1.1-1.8-1.5-2.8c-0.3-0.6-0.6-0.7-1.2-0.3
		c0.2,1.1,0.5,2.3,0.7,3.5c-0.9,0.2-1.7,0.4-2.6,0.5C64.3,52.2,63.5,48.3,62.6,44.3z M65.8,46.4c0.2,1,0.4,2.1,0.7,3.1
		c0.4-0.1,0.8-0.1,1.2-0.2c0.3-0.1,0.5-0.3,0.4-0.6c-0.1-0.4-0.2-0.9-0.3-1.3C67.5,45.9,67.4,45.8,65.8,46.4
		C65.9,46.3,65.9,46.4,65.8,46.4z"/>
	<path class="st0" d="M37.9,49.4c1.6,0,2.8,0.9,3.2,2.5c0.4,1.9,0.8,3.8,1.2,5.7c0.3,1.8-0.6,3.3-2.4,3.8c-0.6,0.2-1.3,0.3-2,0.2
		c-1.5-0.1-2.6-1.1-2.9-2.6c-0.3-1.7-0.6-3.3-1-5c-0.8-3.1,1.4-4.5,3.6-4.6C37.7,49.4,37.8,49.4,37.9,49.4z M37.7,52
		c-0.8,0-1.3,0.4-1.2,1c0.4,1.8,0.7,3.7,1.1,5.5c0.1,0.6,0.6,0.8,1.2,0.7c0.6-0.2,0.9-0.5,0.8-1.1c-0.4-1.8-0.7-3.6-1.1-5.4
		C38.5,52.1,38.2,52,37.7,52z"/>
	<path class="st0" d="M58.1,57.5c-0.8-3.9-1.6-7.8-2.4-11.8c1.8-0.4,3.6-0.7,5.4-1.1c0.2,0.9,0.4,1.7,0.5,2.6
		c-1,0.2-1.9,0.4-2.8,0.6c0.1,0.7,0.3,1.3,0.4,1.9c0.9-0.2,1.7-0.3,2.6-0.5c0.2,0.9,0.4,1.7,0.6,2.6c-0.9,0.2-1.7,0.3-2.6,0.5
		c0.1,0.7,0.3,1.3,0.4,1.9c1-0.2,2-0.4,3.1-0.6c0.2,0.9,0.4,1.7,0.5,2.6C61.9,56.8,60,57.2,58.1,57.5z"/>
	<path class="st0" d="M48.9,47.2c1.9-0.4,3.6-0.8,5.5-1.1c0.2,0.9,0.4,1.7,0.5,2.6C54,48.9,53,49.1,52,49.3c0.1,0.7,0.3,1.3,0.4,2
		c0.9-0.2,1.7-0.3,2.6-0.5c0.2,0.9,0.4,1.7,0.5,2.6c-0.9,0.2-1.7,0.4-2.6,0.5c0.3,1.5,0.6,3,0.9,4.6c-0.9,0.2-1.7,0.4-2.6,0.5
		C50.5,55,49.7,51.1,48.9,47.2z"/>
	<path class="st0" d="M45.2,50.7c0.1,0.7,0.3,1.3,0.4,2c0.9-0.2,1.7-0.3,2.6-0.5c0.2,0.9,0.4,1.7,0.5,2.6c-0.9,0.2-1.7,0.4-2.6,0.5
		c0.3,1.5,0.6,3,0.9,4.6c-0.9,0.2-1.7,0.4-2.6,0.5c-0.3-1.6-0.7-3.2-1-4.8c-0.4-2.2-0.9-4.3-1.3-6.5c-0.1-0.4,0-0.5,0.4-0.6
		c1.7-0.3,3.3-0.7,5.1-1c0.2,0.9,0.4,1.7,0.5,2.6C47.1,50.3,46.2,50.5,45.2,50.7z"/>
	<path class="st0" d="M51,37c0.5-0.1,1-0.2,1.5-0.3c0.3,1.7,0.7,3.4,1,5.1c0.2,1.3-1.3,2.4-2.8,2c-0.6-0.2-1.2-0.5-1.3-1.2
		c-0.4-1.7-0.7-3.4-1.1-5.1c0.5-0.1,1-0.2,1.6-0.3c0.2,1.1,0.4,2.1,0.6,3.1c0.1,0.5,0.2,1,0.3,1.5c0.1,0.4,0.2,0.6,0.7,0.5
		c0.4-0.1,0.5-0.3,0.4-0.7c-0.3-1.4-0.6-2.8-0.9-4.2C51,37.3,51,37.2,51,37z"/>
	<path class="st0" d="M35.2,40.2c0.6-0.1,1-0.2,1.4-0.3c0.1,0,0.3,0.1,0.4,0.2c0.3,0.4,0.5,0.8,0.9,1.3c0.1-0.5,0.2-1,0.3-1.4
		c0-0.4,0.2-0.5,0.6-0.6c0.4,0,0.7-0.1,1.2-0.2c-0.2,0.9-0.4,1.8-0.7,2.7c-0.2,0.7-0.1,1.2,0.3,1.7c0.6,0.7,1.1,1.4,1.7,2.2
		c-0.5,0.1-1,0.2-1.5,0.3c-0.1,0-0.3-0.1-0.3-0.2c-0.3-0.4-0.6-0.8-0.9-1.3c-0.1,0.6-0.2,1-0.3,1.5c-0.1,0.2-0.2,0.4-0.4,0.4
		c-0.4,0.1-0.8,0.2-1.3,0.3c0.2-0.9,0.4-1.8,0.6-2.6c0.2-0.7,0.2-1.3-0.4-1.9C36.3,41.8,35.8,41,35.2,40.2z"/>
	<path class="st0" d="M59.5,35.3c0.4-0.1,0.8-0.2,1.2-0.3c0.3-0.1,0.5,0,0.6,0.3c0.5,1.2,1,2.3,1.6,3.5c0-1.2,0-2.4,0-3.5
		c0-0.7,0.2-0.9,0.8-1c0.2,0,0.4-0.1,0.7-0.1c0,0.2,0,0.4,0,0.6c-0.1,1.9-0.2,3.9-0.2,5.8c0,0.4-0.1,0.6-0.5,0.6
		c-0.3,0-0.7,0.1-1.1,0.2C61.6,39.5,60.6,37.4,59.5,35.3z"/>
	<path class="st0" d="M67.4,39c0.6-0.1,1.1-0.2,1.7-0.3c0.1,0.5,0.2,1,0.3,1.5c-1.1,0.2-2.1,0.4-3.2,0.7c-0.5-2.2-0.9-4.4-1.4-6.6
		c1-0.2,1.9-0.4,2.8-0.6c0.1,0,0.3,0.1,0.3,0.2c0.1,0.4,0.2,0.8,0.2,1.2c-0.5,0.1-1,0.2-1.5,0.4c0.1,0.4,0.1,0.7,0.2,1
		c0.5-0.1,0.9-0.2,1.4-0.3c0.1,0.5,0.2,1,0.3,1.5c-0.5,0.1-0.9,0.2-1.4,0.3C67.3,38.3,67.4,38.6,67.4,39z"/>
	<path class="st0" d="M36,45.4c0.1,0.5,0.2,1,0.3,1.5c-1.1,0.2-2.1,0.4-3.2,0.7c-0.5-2.2-0.9-4.4-1.4-6.6c1-0.2,2-0.4,3.1-0.6
		c0.1,0.5,0.2,1,0.3,1.5c-0.5,0.1-1,0.2-1.6,0.4c0.1,0.3,0.1,0.6,0.2,1c0.5-0.1,0.9-0.2,1.4-0.3c0.1,0.5,0.2,0.9,0.3,1.5
		c-0.3,0.1-0.6,0.2-0.8,0.2c-0.5,0-0.7,0.3-0.5,0.8c0,0.1,0.1,0.2,0.1,0.4C34.9,45.7,35.4,45.6,36,45.4z"/>
	<path class="st0" d="M54.5,41.3c0.4,0,0.8,0.1,1.2,0c0.2,0,0.4-0.3,0.6-0.4c-0.2-0.2-0.3-0.4-0.5-0.5c-0.3-0.2-0.7-0.2-1-0.3
		c-0.9-0.4-1.3-1-1.3-2c0-0.9,0.6-1.5,1.5-1.8c0.2-0.1,0.5-0.1,0.7-0.1c1.1-0.1,1.1,0,0.9,1c-0.1,0.4-0.2,0.5-0.6,0.5
		c-0.2,0-0.4,0-0.5,0.1c-0.2,0.1-0.4,0.3-0.4,0.5s0.2,0.4,0.4,0.5s0.5,0.1,0.8,0.2c1.1,0.3,1.7,1,1.6,2.1c0,1-0.7,1.7-1.8,1.9H56
		C54.5,43.1,54.3,42.9,54.5,41.3z"/>
	<path class="st0" d="M44.8,43.6c0.1,0.5,0.2,1,0.3,1.5c-0.7,0.1-1.3,0.3-1.9,0.3c-0.8,0-1.5-0.5-1.7-1.3c-0.3-1.1-0.5-2.3-0.7-3.4
		c-0.1-0.8,0.3-1.6,1.1-1.8c0.5-0.2,1-0.3,1.5-0.3c0.1,0,0.2,0.2,0.3,0.2c0,0,0,0,0,0.1C44,40,44,40,42.9,40.3
		c-0.5,0.1-0.7,0.3-0.5,0.8c0.2,0.8,0.4,1.6,0.5,2.4c0.1,0.4,0.2,0.5,0.6,0.4C44,43.8,44.4,43.7,44.8,43.6z"/>
	<path class="st0" d="M49,44.3c-1.1,0.2-2.1,0.4-3.2,0.7c-0.5-2.2-0.9-4.4-1.3-6.5c0.1-0.1,0.1-0.1,0.1-0.1c1.4-0.4,1.4-0.4,1.6,1
		c0.3,1.3,0.5,2.5,0.8,3.8c0.5-0.1,0.9-0.1,1.3-0.2c0.3-0.1,0.4,0,0.5,0.3C48.8,43.6,48.9,43.9,49,44.3z"/>
	<path class="st0" d="M57.5,35.6c0.5-0.1,1-0.2,1.5-0.3c0.5,2.2,0.9,4.4,1.4,6.6c-0.5,0.1-0.9,0.2-1.3,0.3c-0.1,0-0.2-0.2-0.2-0.3
		C58.4,39.9,58,37.8,57.5,35.6z"/>
	<path class="st0" d="M70.4,37.4c-0.1-0.6-0.3-1.1-0.4-1.6c1.2-0.3,2.4-0.6,3.7-0.9c0.1,0.5,0.3,1,0.4,1.6
		C72.9,36.8,71.7,37.1,70.4,37.4z"/>
	<path class="st0" d="M27,44.5c1.2-0.3,2.3-0.5,3.4-0.8c0.1,0,0.3,0.1,0.3,0.2c0.1,0.4,0.2,0.8,0.3,1.2c0,0.1-0.2,0.3-0.3,0.3
		c-1,0.2-1.9,0.5-2.9,0.7c-0.3,0.1-0.4,0-0.5-0.3C27.2,45.4,27.1,45,27,44.5z"/>
	<path class="st1" d="M65.8,46.4C65.9,46.3,65.9,46.3,65.8,46.4c1.6-0.6,1.7-0.5,2,1c0.1,0.4,0.2,0.9,0.3,1.3
		c0.1,0.3-0.1,0.5-0.4,0.6c-0.4,0.1-0.8,0.1-1.2,0.2C66.2,48.5,66,47.5,65.8,46.4z"/>
	<path class="st1" d="M37.7,52c0.5,0,0.8,0.2,0.9,0.7c0.3,1.8,0.7,3.6,1.1,5.4c0.1,0.6-0.2,1-0.8,1.1c-0.6,0.2-1.1-0.1-1.2-0.7
		c-0.4-1.8-0.8-3.7-1.1-5.5C36.4,52.4,36.9,52,37.7,52z"/>
</g>
</svg>
