<?xml version="1.0" encoding="utf-8"?>
<!-- Generator: Adobe Illustrator 27.3.1, SVG Export Plug-In . SVG Version: 6.00 Build 0)  -->
<svg version="1.1" id="Layer_1" xmlns="http://www.w3.org/2000/svg" xmlns:xlink="http://www.w3.org/1999/xlink" x="0px" y="0px"
	 viewBox="0 0 100 89.1" style="enable-background:new 0 0 100 89.1;" xml:space="preserve">
<style type="text/css">
	.st0{fill:#527A62;}
</style>
<g>
	<path class="st0" d="M6.9,30C7,30,7,30,6.9,30c0,2.8,0,5.5,0,8.3c0,0.4,0.1,0.6,0.6,0.6s1,0,1.6,0c0.7,0,0.7,0,0.7-0.8
		c0-5,0-9.9,0-14.9c0-0.5,0.1-0.7,0.6-0.9c7-3.1,14.1-6.3,21.1-9.4c6-2.7,12-5.4,18.1-8.1c0.2-0.1,0.6-0.1,0.8,0
		c5.7,2.5,11.3,5.1,16.9,7.6c7.5,3.4,15,6.7,22.5,10c0.4,0.2,0.4,0.4,0.4,0.7c0,3.6,0,7.1,0,10.7c0,1.5,0,3,0,4.5
		c0,0.4,0.1,0.6,0.6,0.6c0.6,0,1.1,0,1.7,0c0.5,0,0.6-0.2,0.6-0.7c0-5.4,0-10.8,0-16.3c0-0.9-0.3-1.4-1.1-1.8
		c-1.4-0.6-2.7-1.2-4-1.8c-12.2-5.5-24.5-11-36.7-16.5c-0.8-0.4-1.6-0.4-2.4,0C44.2,3.9,39.6,6,35,8c-8.9,4-17.9,8-26.8,12
		c-0.9,0.4-1.3,1-1.3,2C7,24.7,6.9,27.3,6.9,30z"/>
	<path class="st0" d="M60,22.9c0-0.2,0-0.7-0.1-1.1c0-0.3-0.1-0.4-0.5-0.4c-0.6,0.1-1.2,0.2-1.9,0.3c-0.4,0-0.4,0.2-0.4,0.6
		c0,0.9,0,1.8-0.3,2.7c-0.7,2.8-3.3,4.9-6.1,5.2c-3,0.3-5.8-1.3-7.2-4c-1.3-2.6-0.9-5.9,1.1-8s4.4-2.8,7.2-2.1
		c0.4,0.1,0.6,0,0.7-0.4c0.1-0.5,0.3-0.9,0.5-1.4c0.2-0.7,0.2-0.7-0.5-0.9c-0.1,0-0.2-0.1-0.3-0.1c-6.6-1.6-12.9,3.9-12.3,10.6
		c0.5,5.7,5.6,9.8,11.3,9.1C56.2,32.3,60,28.1,60,22.9z"/>
	<path class="st0" d="M46.4,22.4c1,1.1,1.8,2.1,2.8,3.1c0.5,0.5,1.1,0.5,1.7,0c0.2-0.2,0.4-0.4,0.6-0.6c2-2,4.1-4.1,6.1-6.1
		c1.1-1.1,2.2-2.3,3.4-3.5c-0.6-0.6-1.2-1.2-1.8-1.8c-0.1,0-0.3,0-0.4,0.1c-2.7,2.7-5.5,5.5-8.2,8.2c-0.2,0.2-0.3,0.3-0.6,0.6
		c-0.6-0.7-1.2-1.3-1.7-1.8C47.5,21.3,46.8,21.9,46.4,22.4z"/>
	<path class="st0" d="M15.5,81.8c0,1.4,0,2.7,0,4c0,1.2-0.5,1.8-1.7,1.8c-1.8,0-3.5,0-5.3,0c-1.1,0-1.5-0.5-1.6-1.5
		c0-0.6,0-1.2,0-1.8c0-6.9,0-13.8,0-20.7c0-3.5,2-6.2,5.4-7.2c0.4-0.1,0.4-0.3,0.4-0.6c0-4.1,0-8.2,0-12.3c0-2.4,1.3-4.1,3.6-4.5
		c0.3-0.1,0.7-0.1,1-0.1c13.1,0,26.3,0,39.4,0c2.9,0,4.7,1.8,4.7,4.7c0,4,0,8,0,12.1c0,0.5,0.1,0.7,0.6,0.9c3.1,0.9,5.1,3.6,5.1,7
		c0,6.6,0,13.2,0,19.8c0,1,0,1.9,0,2.9s-0.4,1.5-1.4,1.5c-1.9,0.1-3.8,0.1-5.7,0c-1,0-1.4-0.6-1.5-1.7c0-1.2,0-2.4,0-3.6
		c0-0.4-0.1-0.5-0.5-0.5c-13.9,0-27.8,0-41.7-0.1C16.1,81.8,15.9,81.8,15.5,81.8z M37,70.4L37,70.4c8.2,0,16.5,0,24.7,0
		c0.7,0,1.5,0,2.2,0c0.3,0,0.4-0.1,0.4-0.4c0-2.3,0-4.7,0-7c-0.1-1.8-1-3.1-2.7-3.7c-0.9-0.3-1.9-0.4-2.9-0.4c-14,0-28,0-42,0
		c-0.7,0-1.5,0-2.2,0c-3.1,0-4.9,2.2-4.8,4.8c0.1,2.1,0,4.2,0,6.3c0,0.4,0.1,0.5,0.5,0.5C19.2,70.4,28.1,70.4,37,70.4z M64.4,73.3
		c-18.3,0-36.4,0-54.5,0c0,0.1-0.1,0.1-0.1,0.1c0,3.7,0,7.3,0,11c0,0.1,0.2,0.3,0.4,0.3c0.7,0,1.4,0,2.1,0c0.3,0,0.5-0.1,0.5-0.5
		c0-1.2,0-2.4,0-3.7c0-1,0.5-1.5,1.5-1.6c0.2,0,0.3,0,0.5,0c14.9,0,29.8,0,44.7,0c1.6,0,2.1,0.5,2.1,2.1c0,1.2,0,2.4,0,3.6
		c0.9,0,1.8,0,2.6,0c0.1,0,0.3-0.3,0.3-0.4c0-3.4,0-6.8,0-10.2C64.4,73.8,64.4,73.6,64.4,73.3z M38.5,56c0-0.2,0-0.5,0-0.7
		c0-1.7,0-3.4,0-5.1c0-2.2,1.6-4,3.8-4.2c1.8-0.2,3.6-0.1,5.4-0.1c1.4,0,2.8,0,4.2,0.1c2,0.2,3.5,1.7,3.7,3.7
		c0.1,1.6,0.1,3.2,0.1,4.8c0,0.5,0,0.9,0,1.4c1,0,2,0,3,0c0-0.1,0-0.2,0-0.3c0-3.9,0-7.8,0-11.7c0-0.4,0-0.8-0.1-1.1
		c-0.1-0.4-0.4-0.8-0.7-0.9c-0.4-0.2-0.8-0.2-1.3-0.2c-9,0-18,0-27,0c-4.2,0-8.3,0-12.5,0c-1.1,0-1.6,0.5-1.6,1.6c0,4,0,8.1,0,12.1
		c0,0.2,0,0.4,0,0.6c1,0,1.9,0,2.9,0c0-0.2,0-0.4,0-0.5c0-1.6,0-3.3,0-4.9c0-2.5,1.5-4.4,4-4.5c3.1-0.2,6.2-0.2,9.3,0
		c2.4,0.1,3.9,2,3.9,4.5c0,1.7,0,3.3,0,5c0,0.2,0,0.3,0,0.5C36.6,56,37.5,56,38.5,56z M52.9,56c0-1.9,0-3.7,0-5.6
		c0-1.1-0.5-1.6-1.6-1.6c-2.8,0-5.5,0-8.3,0c-1,0-1.6,0.4-1.6,1.5c-0.1,1.9,0,3.7,0,5.6c0,0,0,0.1,0.1,0.1C45.2,56,49,56,52.9,56z
		 M32.8,56c0-2,0-4,0-6c0-0.7-0.6-1.2-1.4-1.2c-2.9,0-5.7,0-8.6,0c-1,0-1.5,0.5-1.5,1.6c0,1,0,1.9,0,2.9c0,0.9,0,1.8,0,2.7
		C25.1,56,28.9,56,32.8,56z"/>
	<path class="st0" d="M6.9,30c0-2.6,0-5.3,0-7.9c0-1,0.3-1.6,1.3-2c9-4,17.9-8,26.8-12C39.6,6,44.2,4,48.7,1.9
		c0.8-0.4,1.6-0.4,2.4,0c12.2,5.5,24.5,11,36.7,16.5c1.3,0.6,2.7,1.2,4,1.8c0.8,0.3,1.1,0.9,1.1,1.8c0,5.4,0,10.8,0,16.3
		c0,0.5-0.1,0.7-0.6,0.7c-0.6,0-1.1,0-1.7,0c-0.4,0-0.6-0.1-0.6-0.6c0-1.5,0-3,0-4.5c0-3.6,0-7.1,0-10.7c0-0.4-0.1-0.6-0.4-0.7
		c-7.5-3.3-15-6.7-22.5-10C61.7,9.7,56,7.1,50.4,4.6c-0.2-0.1-0.6-0.1-0.8,0c-6,2.7-12.1,5.4-18.1,8.1c-7,3.2-14,6.3-21.1,9.4
		c-0.5,0.2-0.6,0.4-0.6,0.9c0,5,0,9.9,0,14.9c0,0.8,0,0.8-0.7,0.8c-0.5,0-1,0-1.6,0c-0.4,0-0.6-0.1-0.6-0.6C7,35.5,7,32.7,6.9,30
		C7,30,7,30,6.9,30z"/>
	<path class="st0" d="M93,79c-0.8,0-1.7,0-2.5,0c-0.1,0-0.3-0.3-0.3-0.5c0-1.6,0-3.1,0-4.7c0-1.1,0-2.2,0-3.4c-5.8,0-11.5,0-17.2,0
		c0,2.9,0,5.7,0,8.6c-0.9,0-1.8,0-2.8,0c0-0.2,0-0.5,0-0.8c0-6.8,0-13.6,0-20.3c0-1.3,0.5-1.8,1.8-1.8c6.4,0,12.9,0,19.3,0
		c1.2,0,1.8,0.6,1.8,1.8c0,6.9,0,13.9,0,20.8C93,78.7,93,78.8,93,79z M90.2,67.5c0-2.9,0-5.7,0-8.6c-5.8,0-11.5,0-17.2,0
		c0,2.9,0,5.8,0,8.6C78.7,67.5,84.5,67.5,90.2,67.5z"/>
	<path class="st0" d="M83.1,46c0,1.4,0,2.8,0,4.3c0.7,0,1.5,0,2.3,0c0.4,0,0.5,0.1,0.5,0.5c0,0.6,0,1.3,0,1.9c0,0.4-0.1,0.5-0.5,0.5
		c-2.6,0-5.1,0-7.7,0c-0.3,0-0.4-0.1-0.4-0.4c0-0.6,0-1.3,0-1.9c0-0.4,0.2-0.6,0.6-0.5c0.6,0,1.3,0,1.9,0c0.3,0,0.4-0.1,0.4-0.4
		c0-1.2,0-2.3,0-3.5c0-0.4-0.2-0.4-0.5-0.4c-1.1,0-2.3,0-3.4,0c-1.5,0-2.1-0.8-1.6-2.2c0.9-2.7,1.8-5.3,2.6-8
		c0.3-0.8,0.8-1.3,1.7-1.2c1.7,0,3.4,0,5.2,0c1.1,0,1.4,0.3,1.7,1.3c0.9,2.7,1.8,5.3,2.7,8c0.5,1.5-0.1,2.2-1.6,2.2
		C85.7,46,84.4,46,83.1,46z M77.8,43.1c2.6,0,5,0,7.5,0c0-0.2-0.1-0.3-0.1-0.4c-0.6-1.7-1.1-3.4-1.7-5c0-0.1-0.3-0.3-0.5-0.3
		c-1,0-1.9,0-2.9,0c-0.4,0-0.5,0.1-0.6,0.4c-0.4,1.3-0.9,2.6-1.3,3.9C78.1,42.1,78,42.6,77.8,43.1z"/>
	<path class="st0" d="M60,22.9c0,5.2-3.8,9.4-8.8,10c-5.7,0.7-10.8-3.4-11.3-9.1c-0.6-6.8,5.7-12.2,12.3-10.6c0.1,0,0.2,0.1,0.3,0.1
		c0.7,0.2,0.7,0.2,0.5,0.9c-0.2,0.5-0.4,0.9-0.5,1.4c-0.1,0.4-0.3,0.5-0.7,0.4c-2.8-0.6-5.2,0-7.2,2.1c-2,2.2-2.4,5.4-1.1,8
		c1.3,2.7,4.1,4.2,7.2,4c2.8-0.3,5.4-2.4,6.1-5.2c0.2-0.9,0.2-1.8,0.3-2.7c0-0.4,0.1-0.5,0.4-0.6c0.6-0.1,1.3-0.2,1.9-0.3
		c0.4-0.1,0.5,0.1,0.5,0.4C60,22.2,60,22.6,60,22.9z"/>
	<path class="st0" d="M46.4,22.4c0.5-0.5,1.1-1.1,1.8-1.7c0.5,0.6,1.1,1.2,1.7,1.8c0.3-0.3,0.5-0.4,0.6-0.6c2.7-2.7,5.5-5.5,8.2-8.2
		c0.1-0.1,0.4-0.2,0.4-0.1c0.6,0.6,1.2,1.2,1.8,1.8c-1.2,1.2-2.3,2.3-3.4,3.5c-2,2-4,4.1-6.1,6.1c-0.2,0.2-0.4,0.4-0.6,0.6
		c-0.6,0.4-1.2,0.5-1.7,0C48.2,24.5,47.3,23.4,46.4,22.4z"/>
	<path class="st0" d="M81.6,64.6c-0.8,0-1.6,0-2.3,0c-0.4,0-0.5-0.1-0.5-0.5c0-0.6,0-1.3,0-1.9c0-0.3,0.1-0.5,0.5-0.5
		c1.6,0,3.2,0,4.9,0c0.3,0,0.4,0.1,0.4,0.4c0,0.7,0,1.3,0,2c0,0.3-0.1,0.4-0.4,0.4C83.2,64.6,82.4,64.6,81.6,64.6L81.6,64.6z"/>
</g>
</svg>
