<?xml version="1.0" encoding="utf-8"?>
<!-- Generator: Adobe Illustrator 27.3.1, SVG Export Plug-In . SVG Version: 6.00 Build 0)  -->
<svg version="1.1" id="Layer_1" xmlns="http://www.w3.org/2000/svg" xmlns:xlink="http://www.w3.org/1999/xlink" x="0px" y="0px"
	 viewBox="0 0 100 89.1" style="enable-background:new 0 0 100 89.1;" xml:space="preserve">
<style type="text/css">
	.st0{fill:#527A62;}
</style>
<g>
	<path class="st0" d="M22.7,27.7c7.4-8,16.4-12.3,27.3-12.3c10.9,0,19.9,4.4,27.2,12.2c2.9-2.8,5.6-5.6,8.4-8.4
		c-20.1-22-53.5-20.1-71.3,0.1C17.1,22.1,19.9,24.9,22.7,27.7z M72.1,32.8c-12.5-14.1-33.1-13-44.2,0c2.8,2.8,5.7,5.6,8.5,8.5
		c3.5-4.1,7.9-6.6,13.5-6.6c5.6,0,10,2.5,13.6,6.6C66.5,38.5,69.3,35.7,72.1,32.8z M50,56.6c4,0,7.2-3.2,7.3-7.2
		c0-4-3.2-7.3-7.2-7.3c-4,0-7.2,3.2-7.3,7.2C42.7,53.4,46,56.6,50,56.6z"/>
	<path class="st0" d="M33.1,85.7c0-0.2-0.1-0.4-0.1-0.6c0-7.6,0-15.2,0-22.8c0-0.2,0-0.4,0-0.7c0.2,0,0.4-0.1,0.6-0.1
		c2.8,0,5.6-0.1,8.3,0.1c3.5,0.2,5.9,2,7.3,5.2c1.3,3.2,0.7,6.2-1.6,8.9c-0.1,0.1-0.2,0.2-0.3,0.4c1.3,1.4,2.3,3.1,2.4,5
		c0.1,1.5,0.1,3.1,0.1,4.6c-1.6,0-3.2,0-4.8,0c0-1.2,0-2.4,0-3.6c0-1.7-1.1-3.2-2.7-3.5c-1.5-0.2-3,0-4.5,0c0,2.4,0,4.8,0,7.1
		C36.3,85.7,34.7,85.7,33.1,85.7z M38,66.4c0,2.4,0,4.8,0,7.2c1.1,0,2.2,0,3.3,0c0.3,0,0.6,0,1-0.1c1.8-0.3,3-1.9,2.9-3.7
		c-0.1-1.8-1.5-3.3-3.3-3.4C40.6,66.3,39.3,66.4,38,66.4z"/>
	<path class="st0" d="M54.8,85.7c0-8,0-16,0-24.1c4,0,8,0,12,0c0,1.6,0,3.1,0,4.8c-2.4,0-4.7,0-7.1,0c0,1.6,0,3.2,0,4.8
		c2.4,0,4.7,0,7.1,0c0,1.6,0,3.2,0,4.8c-2.4,0-4.7,0-7.1,0c0,1.6,0,3.2,0,4.8c2.4,0,4.7,0,7.2,0c0,1.7,0,3.3,0,4.9
		C62.8,85.7,58.8,85.7,54.8,85.7z"/>
	<path class="st0" d="M71.8,85.7c0-0.3-0.1-0.5-0.1-0.8c0-7.5,0-15,0-22.5c0-0.7,0.2-0.9,0.9-0.9c3.4,0,6.8,0,10.3,0
		c0.3,0,0.5,0,0.8,0c0,1.6,0,3.2,0,4.8c-2.4,0-4.7,0-7.1,0c0,1.6,0,3.2,0,4.9c2.4,0,4.7,0,7.1,0c0,1.6,0,3.2,0,4.8
		c-2.4,0-4.7,0-7.2,0c0,1.7,0,3.2,0,4.8c2.4,0,4.7,0,7.2,0c0,1.7,0,3.2,0,4.8C79.8,85.7,75.8,85.7,71.8,85.7z"/>
	<path class="st0" d="M16.1,85.7c0-7.7,0-15.4,0-23.1c0-0.3,0-0.6,0-1c4,0,8,0,12,0c0,1.6,0,3.1,0,4.8c-2.4,0-4.7,0-7.1,0
		c0,1.6,0,3.2,0,4.8c2.4,0,4.8,0,7.2,0c0,1.6,0,3.2,0,4.8c-2.4,0-4.7,0-7.2,0c0,3.3,0,6.5,0,9.7C19.3,85.7,17.7,85.7,16.1,85.7z"/>
	<path class="st0" d="M22.7,27.7c-2.8-2.8-5.6-5.6-8.4-8.4C32.1-0.8,65.5-2.8,85.7,19.3c-2.8,2.8-5.6,5.6-8.4,8.4
		C70,19.8,60.9,15.4,50,15.4C39.1,15.4,30.1,19.7,22.7,27.7z"/>
	<path class="st0" d="M72.1,32.8c-2.8,2.8-5.7,5.7-8.6,8.5c-3.5-4.1-7.9-6.6-13.6-6.6c-5.6,0-10,2.5-13.5,6.6
		c-2.9-2.9-5.7-5.7-8.5-8.5C39,19.8,59.6,18.7,72.1,32.8z"/>
	<path class="st0" d="M50,56.6c-4,0-7.2-3.2-7.2-7.3c0-4,3.2-7.2,7.3-7.2c4,0,7.2,3.2,7.2,7.3C57.2,53.4,54,56.7,50,56.6z"/>
</g>
</svg>
